<?xml version="1.0" encoding="UTF-8"?>
<svg xmlns="http://www.w3.org/2000/svg" xmlns:xlink="http://www.w3.org/1999/xlink" width="1920" height="1080" viewBox="0 0 1920 1080">
<defs>
<g>
<g id="glyph-0-0">
<path d="M 2.816406 -1.773438 C 2.816406 -1.5 2.789062 -1.253906 2.734375 -1.03125 C 2.679688 -0.804688 2.597656 -0.613281 2.488281 -0.453125 C 2.378906 -0.292969 2.242188 -0.171875 2.078125 -0.0820312 C 1.914062 0.00390625 1.722656 0.0507812 1.5 0.0507812 C 1.308594 0.0507812 1.136719 0.0117188 0.980469 -0.0585938 C 0.828125 -0.128906 0.695312 -0.238281 0.582031 -0.386719 C 0.472656 -0.535156 0.386719 -0.726562 0.328125 -0.953125 C 0.269531 -1.183594 0.238281 -1.457031 0.238281 -1.773438 C 0.238281 -2.042969 0.265625 -2.289062 0.320312 -2.515625 C 0.375 -2.738281 0.457031 -2.929688 0.566406 -3.089844 C 0.679688 -3.25 0.816406 -3.375 0.980469 -3.464844 C 1.144531 -3.550781 1.335938 -3.59375 1.554688 -3.59375 C 1.746094 -3.59375 1.917969 -3.558594 2.074219 -3.488281 C 2.226562 -3.414062 2.359375 -3.304688 2.472656 -3.15625 C 2.582031 -3.007812 2.667969 -2.816406 2.726562 -2.589844 C 2.785156 -2.359375 2.816406 -2.085938 2.816406 -1.773438 M 2.339844 -1.753906 C 2.339844 -1.816406 2.335938 -1.878906 2.332031 -1.9375 C 2.328125 -2 2.320312 -2.058594 2.316406 -2.117188 L 0.816406 -1 C 0.84375 -0.90625 0.878906 -0.820312 0.917969 -0.742188 C 0.960938 -0.660156 1.011719 -0.59375 1.070312 -0.535156 C 1.128906 -0.480469 1.195312 -0.433594 1.269531 -0.402344 C 1.347656 -0.371094 1.429688 -0.355469 1.527344 -0.355469 C 1.648438 -0.355469 1.761719 -0.386719 1.863281 -0.445312 C 1.960938 -0.503906 2.046875 -0.59375 2.117188 -0.710938 C 2.1875 -0.828125 2.242188 -0.972656 2.28125 -1.148438 C 2.320312 -1.324219 2.339844 -1.527344 2.339844 -1.753906 M 0.714844 -1.789062 C 0.714844 -1.730469 0.714844 -1.675781 0.71875 -1.621094 C 0.71875 -1.5625 0.722656 -1.507812 0.726562 -1.457031 L 2.226562 -2.566406 C 2.199219 -2.660156 2.164062 -2.742188 2.125 -2.820312 C 2.082031 -2.894531 2.03125 -2.960938 1.976562 -3.015625 C 1.917969 -3.070312 1.851562 -3.113281 1.777344 -3.144531 C 1.703125 -3.175781 1.621094 -3.191406 1.527344 -3.191406 C 1.40625 -3.191406 1.292969 -3.160156 1.191406 -3.101562 C 1.09375 -3.042969 1.007812 -2.953125 0.9375 -2.832031 C 0.867188 -2.714844 0.8125 -2.570312 0.773438 -2.394531 C 0.734375 -2.21875 0.714844 -2.015625 0.714844 -1.789062 Z "/>
</g>
<g id="glyph-0-1">
<path d="M 1.503906 -0.855469 C 1.566406 -0.855469 1.625 -0.84375 1.679688 -0.820312 C 1.734375 -0.796875 1.785156 -0.761719 1.824219 -0.722656 C 1.863281 -0.679688 1.898438 -0.632812 1.921875 -0.578125 C 1.945312 -0.519531 1.957031 -0.460938 1.957031 -0.398438 C 1.957031 -0.335938 1.945312 -0.28125 1.921875 -0.226562 C 1.898438 -0.171875 1.863281 -0.125 1.824219 -0.0820312 C 1.785156 -0.0429688 1.734375 -0.0117188 1.679688 0.0117188 C 1.625 0.0351562 1.566406 0.0507812 1.503906 0.0507812 C 1.441406 0.0507812 1.382812 0.0351562 1.328125 0.0117188 C 1.273438 -0.0117188 1.226562 -0.0429688 1.1875 -0.0820312 C 1.144531 -0.125 1.113281 -0.171875 1.089844 -0.226562 C 1.066406 -0.28125 1.054688 -0.335938 1.054688 -0.398438 C 1.054688 -0.460938 1.066406 -0.519531 1.089844 -0.578125 C 1.113281 -0.632812 1.144531 -0.679688 1.1875 -0.722656 C 1.226562 -0.761719 1.273438 -0.796875 1.328125 -0.820312 C 1.382812 -0.84375 1.441406 -0.855469 1.503906 -0.855469 Z "/>
</g>
<g id="glyph-0-2">
<path d="M 2.777344 -1.125 C 2.777344 -0.960938 2.75 -0.808594 2.691406 -0.664062 C 2.632812 -0.523438 2.546875 -0.398438 2.4375 -0.292969 C 2.332031 -0.1875 2.199219 -0.101562 2.046875 -0.0429688 C 1.894531 0.0195312 1.722656 0.0507812 1.539062 0.0507812 C 1.34375 0.0507812 1.171875 0.0195312 1.019531 -0.0429688 C 0.871094 -0.105469 0.746094 -0.203125 0.644531 -0.332031 C 0.542969 -0.460938 0.464844 -0.625 0.414062 -0.820312 C 0.359375 -1.019531 0.332031 -1.253906 0.332031 -1.523438 C 0.332031 -1.703125 0.34375 -1.878906 0.367188 -2.046875 C 0.390625 -2.21875 0.429688 -2.378906 0.484375 -2.527344 C 0.539062 -2.679688 0.613281 -2.816406 0.703125 -2.941406 C 0.792969 -3.066406 0.90625 -3.171875 1.039062 -3.261719 C 1.175781 -3.351562 1.332031 -3.421875 1.515625 -3.472656 C 1.699219 -3.519531 1.910156 -3.546875 2.152344 -3.546875 L 2.5 -3.546875 L 2.5 -3.132812 L 2.121094 -3.132812 C 1.910156 -3.132812 1.726562 -3.109375 1.570312 -3.058594 C 1.414062 -3.007812 1.285156 -2.933594 1.179688 -2.84375 C 1.074219 -2.75 0.996094 -2.640625 0.9375 -2.507812 C 0.882812 -2.378906 0.847656 -2.234375 0.832031 -2.074219 L 0.820312 -1.960938 C 0.9375 -2.027344 1.066406 -2.082031 1.214844 -2.121094 C 1.367188 -2.164062 1.527344 -2.183594 1.699219 -2.183594 C 1.878906 -2.183594 2.035156 -2.15625 2.171875 -2.105469 C 2.304688 -2.054688 2.417969 -1.980469 2.507812 -1.886719 C 2.597656 -1.792969 2.664062 -1.683594 2.710938 -1.550781 C 2.753906 -1.421875 2.777344 -1.277344 2.777344 -1.125 M 2.285156 -1.09375 C 2.285156 -1.203125 2.269531 -1.300781 2.246094 -1.386719 C 2.21875 -1.476562 2.175781 -1.550781 2.121094 -1.609375 C 2.066406 -1.671875 1.996094 -1.71875 1.910156 -1.75 C 1.824219 -1.785156 1.71875 -1.800781 1.601562 -1.800781 C 1.53125 -1.800781 1.460938 -1.796875 1.390625 -1.78125 C 1.320312 -1.769531 1.253906 -1.753906 1.183594 -1.730469 C 1.117188 -1.707031 1.050781 -1.679688 0.988281 -1.652344 C 0.929688 -1.625 0.871094 -1.59375 0.820312 -1.558594 C 0.820312 -1.328125 0.839844 -1.132812 0.871094 -0.976562 C 0.902344 -0.820312 0.953125 -0.695312 1.015625 -0.597656 C 1.082031 -0.503906 1.160156 -0.4375 1.253906 -0.398438 C 1.347656 -0.359375 1.457031 -0.339844 1.578125 -0.339844 C 1.683594 -0.339844 1.777344 -0.355469 1.863281 -0.390625 C 1.949219 -0.421875 2.023438 -0.472656 2.085938 -0.539062 C 2.148438 -0.601562 2.195312 -0.679688 2.230469 -0.773438 C 2.265625 -0.867188 2.285156 -0.972656 2.285156 -1.09375 Z "/>
</g>
<g id="glyph-0-3">
<path d="M 2.644531 -1.132812 C 2.644531 -0.957031 2.605469 -0.796875 2.53125 -0.652344 C 2.457031 -0.507812 2.351562 -0.386719 2.21875 -0.28125 C 2.085938 -0.175781 1.929688 -0.0976562 1.746094 -0.0390625 C 1.566406 0.0195312 1.371094 0.0507812 1.160156 0.0507812 C 1.109375 0.0507812 1.050781 0.046875 0.992188 0.0429688 C 0.929688 0.0429688 0.871094 0.0390625 0.8125 0.0351562 C 0.75 0.03125 0.691406 0.0234375 0.636719 0.0195312 C 0.578125 0.0117188 0.527344 0.0078125 0.484375 0 L 0.484375 -0.429688 C 0.582031 -0.40625 0.691406 -0.386719 0.816406 -0.378906 C 0.945312 -0.367188 1.070312 -0.359375 1.199219 -0.359375 C 1.34375 -0.359375 1.472656 -0.378906 1.589844 -0.414062 C 1.707031 -0.445312 1.804688 -0.496094 1.886719 -0.558594 C 1.96875 -0.625 2.027344 -0.703125 2.074219 -0.792969 C 2.117188 -0.886719 2.136719 -0.988281 2.136719 -1.101562 C 2.136719 -1.320312 2.058594 -1.484375 1.898438 -1.582031 C 1.742188 -1.683594 1.515625 -1.734375 1.21875 -1.734375 L 0.546875 -1.734375 L 0.546875 -3.546875 L 2.457031 -3.546875 L 2.457031 -3.132812 L 0.988281 -3.132812 L 0.988281 -2.136719 L 1.300781 -2.136719 C 1.46875 -2.136719 1.636719 -2.121094 1.796875 -2.089844 C 1.957031 -2.0625 2.101562 -2.007812 2.226562 -1.929688 C 2.351562 -1.851562 2.453125 -1.75 2.53125 -1.621094 C 2.605469 -1.492188 2.644531 -1.328125 2.644531 -1.132812 Z "/>
</g>
<g id="glyph-0-4">
<path d="M 2.734375 -0.890625 C 2.734375 -0.738281 2.703125 -0.605469 2.640625 -0.488281 C 2.582031 -0.371094 2.496094 -0.273438 2.382812 -0.195312 C 2.273438 -0.117188 2.144531 -0.0546875 1.992188 -0.0117188 C 1.84375 0.0273438 1.679688 0.0507812 1.503906 0.0507812 C 1.3125 0.0507812 1.140625 0.0273438 0.996094 -0.015625 C 0.847656 -0.0585938 0.722656 -0.121094 0.625 -0.199219 C 0.523438 -0.277344 0.449219 -0.367188 0.398438 -0.476562 C 0.347656 -0.582031 0.324219 -0.699219 0.324219 -0.828125 C 0.324219 -1.042969 0.382812 -1.230469 0.503906 -1.390625 C 0.625 -1.546875 0.8125 -1.6875 1.066406 -1.816406 C 0.835938 -1.933594 0.664062 -2.066406 0.558594 -2.210938 C 0.453125 -2.351562 0.398438 -2.519531 0.398438 -2.703125 C 0.398438 -2.820312 0.421875 -2.929688 0.46875 -3.035156 C 0.515625 -3.140625 0.585938 -3.238281 0.683594 -3.320312 C 0.777344 -3.402344 0.894531 -3.46875 1.039062 -3.519531 C 1.183594 -3.570312 1.351562 -3.59375 1.542969 -3.59375 C 1.726562 -3.59375 1.886719 -3.574219 2.023438 -3.535156 C 2.164062 -3.496094 2.28125 -3.441406 2.375 -3.371094 C 2.46875 -3.296875 2.539062 -3.210938 2.585938 -3.105469 C 2.632812 -3.003906 2.65625 -2.886719 2.65625 -2.761719 C 2.65625 -2.554688 2.597656 -2.378906 2.484375 -2.234375 C 2.367188 -2.089844 2.207031 -1.964844 1.992188 -1.855469 C 2.097656 -1.804688 2.195312 -1.746094 2.285156 -1.683594 C 2.378906 -1.617188 2.457031 -1.546875 2.523438 -1.46875 C 2.589844 -1.394531 2.640625 -1.304688 2.679688 -1.210938 C 2.714844 -1.113281 2.734375 -1.007812 2.734375 -0.890625 M 2.171875 -2.722656 C 2.171875 -2.882812 2.117188 -3.003906 2.003906 -3.082031 C 1.890625 -3.160156 1.730469 -3.203125 1.527344 -3.203125 C 1.324219 -3.203125 1.167969 -3.164062 1.054688 -3.085938 C 0.941406 -3.007812 0.882812 -2.890625 0.882812 -2.734375 C 0.882812 -2.664062 0.898438 -2.597656 0.925781 -2.539062 C 0.953125 -2.480469 0.996094 -2.421875 1.050781 -2.371094 C 1.109375 -2.320312 1.179688 -2.265625 1.265625 -2.214844 C 1.347656 -2.164062 1.449219 -2.113281 1.566406 -2.0625 C 1.773438 -2.15625 1.925781 -2.257812 2.023438 -2.363281 C 2.125 -2.464844 2.171875 -2.585938 2.171875 -2.722656 M 2.222656 -0.855469 C 2.222656 -0.921875 2.210938 -0.988281 2.1875 -1.050781 C 2.167969 -1.113281 2.128906 -1.175781 2.074219 -1.238281 C 2.015625 -1.296875 1.941406 -1.359375 1.847656 -1.421875 C 1.753906 -1.484375 1.632812 -1.546875 1.488281 -1.613281 C 1.367188 -1.550781 1.261719 -1.492188 1.179688 -1.433594 C 1.09375 -1.375 1.027344 -1.316406 0.976562 -1.253906 C 0.921875 -1.195312 0.886719 -1.132812 0.867188 -1.066406 C 0.84375 -1 0.832031 -0.933594 0.832031 -0.859375 C 0.832031 -0.777344 0.851562 -0.707031 0.886719 -0.644531 C 0.921875 -0.582031 0.96875 -0.527344 1.03125 -0.484375 C 1.09375 -0.441406 1.164062 -0.410156 1.25 -0.386719 C 1.335938 -0.367188 1.429688 -0.355469 1.527344 -0.355469 C 1.625 -0.355469 1.714844 -0.367188 1.796875 -0.386719 C 1.882812 -0.40625 1.957031 -0.433594 2.019531 -0.476562 C 2.082031 -0.515625 2.132812 -0.566406 2.167969 -0.628906 C 2.203125 -0.691406 2.222656 -0.769531 2.222656 -0.855469 Z "/>
</g>
</g>
</defs>
<g fill="rgb(10.196078%, 10.196078%, 18.039216%)" fill-opacity="1">
<use xlink:href="#glyph-0-0" x="30" y="24.125977"/>
<use xlink:href="#glyph-0-1" x="33" y="24.125977"/>
<use xlink:href="#glyph-0-0" x="36" y="24.125977"/>
<use xlink:href="#glyph-0-0" x="39" y="24.125977"/>
<use xlink:href="#glyph-0-2" x="42" y="24.125977"/>
<use xlink:href="#glyph-0-3" x="45" y="24.125977"/>
<use xlink:href="#glyph-0-2" x="48" y="24.125977"/>
<use xlink:href="#glyph-0-4" x="51" y="24.125977"/>
</g>
</svg>
