<?xml version="1.0" encoding="UTF-8"?>
<svg xmlns="http://www.w3.org/2000/svg" xmlns:xlink="http://www.w3.org/1999/xlink" width="1920" height="1080" viewBox="0 0 1920 1080">
<defs>
<g>
<g id="glyph-0-0">
<path d="M 4.214844 -0.796875 C 4.214844 -0.730469 4.214844 -0.671875 4.210938 -0.625 C 4.207031 -0.578125 4.199219 -0.535156 4.191406 -0.503906 C 4.183594 -0.46875 4.171875 -0.4375 4.160156 -0.414062 C 4.144531 -0.390625 4.125 -0.363281 4.09375 -0.332031 C 4.0625 -0.300781 4.007812 -0.261719 3.921875 -0.210938 C 3.835938 -0.164062 3.730469 -0.117188 3.605469 -0.0703125 C 3.484375 -0.0273438 3.34375 0.0117188 3.183594 0.0390625 C 3.023438 0.0703125 2.855469 0.0859375 2.667969 0.0859375 C 2.308594 0.0859375 1.984375 0.03125 1.691406 -0.0820312 C 1.402344 -0.191406 1.15625 -0.359375 0.953125 -0.578125 C 0.75 -0.800781 0.59375 -1.078125 0.484375 -1.40625 C 0.375 -1.738281 0.320312 -2.125 0.320312 -2.5625 C 0.320312 -3.011719 0.382812 -3.410156 0.5 -3.753906 C 0.621094 -4.101562 0.785156 -4.394531 1 -4.628906 C 1.214844 -4.867188 1.472656 -5.046875 1.773438 -5.167969 C 2.070312 -5.289062 2.402344 -5.351562 2.761719 -5.351562 C 2.910156 -5.351562 3.050781 -5.339844 3.1875 -5.3125 C 3.320312 -5.289062 3.445312 -5.257812 3.5625 -5.21875 C 3.675781 -5.179688 3.78125 -5.132812 3.875 -5.082031 C 3.964844 -5.03125 4.03125 -4.988281 4.066406 -4.949219 C 4.105469 -4.914062 4.128906 -4.882812 4.140625 -4.859375 C 4.15625 -4.832031 4.167969 -4.804688 4.175781 -4.765625 C 4.183594 -4.726562 4.1875 -4.683594 4.191406 -4.628906 C 4.195312 -4.578125 4.199219 -4.515625 4.199219 -4.4375 C 4.199219 -4.359375 4.195312 -4.289062 4.191406 -4.230469 C 4.1875 -4.175781 4.175781 -4.128906 4.164062 -4.09375 C 4.148438 -4.058594 4.132812 -4.03125 4.113281 -4.015625 C 4.09375 -4 4.074219 -3.992188 4.046875 -3.992188 C 4.007812 -3.992188 3.957031 -4.015625 3.894531 -4.0625 C 3.832031 -4.109375 3.75 -4.164062 3.652344 -4.222656 C 3.554688 -4.28125 3.433594 -4.332031 3.296875 -4.378906 C 3.160156 -4.429688 2.996094 -4.453125 2.808594 -4.453125 C 2.597656 -4.453125 2.414062 -4.410156 2.25 -4.324219 C 2.085938 -4.238281 1.945312 -4.117188 1.828125 -3.957031 C 1.714844 -3.796875 1.625 -3.605469 1.566406 -3.382812 C 1.507812 -3.15625 1.476562 -2.902344 1.476562 -2.621094 C 1.476562 -2.3125 1.507812 -2.042969 1.574219 -1.816406 C 1.636719 -1.589844 1.726562 -1.402344 1.84375 -1.257812 C 1.964844 -1.109375 2.105469 -1 2.273438 -0.929688 C 2.4375 -0.859375 2.628906 -0.820312 2.835938 -0.820312 C 3.027344 -0.820312 3.191406 -0.84375 3.328125 -0.890625 C 3.464844 -0.933594 3.585938 -0.984375 3.683594 -1.039062 C 3.785156 -1.09375 3.863281 -1.140625 3.929688 -1.183594 C 3.992188 -1.226562 4.042969 -1.25 4.078125 -1.25 C 4.105469 -1.25 4.125 -1.242188 4.140625 -1.234375 C 4.160156 -1.222656 4.171875 -1.199219 4.183594 -1.167969 C 4.195312 -1.136719 4.203125 -1.089844 4.207031 -1.03125 C 4.210938 -0.972656 4.214844 -0.894531 4.214844 -0.796875 Z "/>
</g>
<g id="glyph-0-1">
<path d="M 4.886719 -0.398438 C 4.917969 -0.300781 4.941406 -0.222656 4.949219 -0.167969 C 4.957031 -0.109375 4.945312 -0.0664062 4.914062 -0.0390625 C 4.886719 -0.0117188 4.832031 0.0078125 4.757812 0.015625 C 4.679688 0.0195312 4.578125 0.0234375 4.441406 0.0234375 C 4.304688 0.0234375 4.195312 0.0234375 4.121094 0.0195312 C 4.042969 0.015625 3.984375 0.0078125 3.941406 -0.0078125 C 3.902344 -0.0195312 3.875 -0.0351562 3.855469 -0.0585938 C 3.839844 -0.078125 3.828125 -0.105469 3.816406 -0.140625 L 3.460938 -1.199219 L 1.484375 -1.199219 L 1.152344 -0.171875 C 1.140625 -0.132812 1.125 -0.101562 1.109375 -0.0742188 C 1.089844 -0.0507812 1.0625 -0.0273438 1.023438 -0.015625 C 0.984375 0 0.929688 0.0117188 0.855469 0.015625 C 0.785156 0.0234375 0.691406 0.0234375 0.574219 0.0234375 C 0.449219 0.0234375 0.351562 0.0195312 0.28125 0.0117188 C 0.210938 0.00390625 0.160156 -0.015625 0.132812 -0.046875 C 0.105469 -0.078125 0.0976562 -0.121094 0.105469 -0.179688 C 0.113281 -0.234375 0.132812 -0.3125 0.167969 -0.40625 L 1.789062 -5.078125 C 1.804688 -5.125 1.824219 -5.160156 1.847656 -5.191406 C 1.867188 -5.21875 1.902344 -5.238281 1.949219 -5.253906 C 2 -5.269531 2.0625 -5.28125 2.148438 -5.285156 C 2.234375 -5.289062 2.34375 -5.289062 2.480469 -5.289062 C 2.640625 -5.289062 2.769531 -5.289062 2.863281 -5.285156 C 2.960938 -5.28125 3.035156 -5.269531 3.085938 -5.253906 C 3.140625 -5.238281 3.175781 -5.21875 3.199219 -5.1875 C 3.222656 -5.15625 3.242188 -5.117188 3.257812 -5.066406 L 4.886719 -0.398438 M 2.46875 -4.261719 L 2.464844 -4.261719 L 1.722656 -2.023438 L 3.214844 -2.023438 Z "/>
</g>
<g id="glyph-0-2">
<path d="M 4.179688 -3.667969 C 4.179688 -3.371094 4.132812 -3.109375 4.039062 -2.878906 C 3.949219 -2.652344 3.8125 -2.460938 3.636719 -2.304688 C 3.460938 -2.148438 3.246094 -2.03125 2.988281 -1.949219 C 2.730469 -1.867188 2.429688 -1.828125 2.082031 -1.828125 L 1.644531 -1.828125 L 1.644531 -0.144531 C 1.644531 -0.121094 1.636719 -0.09375 1.617188 -0.0742188 C 1.601562 -0.0507812 1.570312 -0.0351562 1.53125 -0.0195312 C 1.488281 -0.0078125 1.433594 0.00390625 1.367188 0.0117188 C 1.300781 0.0195312 1.210938 0.0234375 1.105469 0.0234375 C 1.003906 0.0234375 0.917969 0.0195312 0.847656 0.0117188 C 0.777344 0.00390625 0.722656 -0.0078125 0.683594 -0.0195312 C 0.644531 -0.0351562 0.613281 -0.0507812 0.597656 -0.0742188 C 0.582031 -0.09375 0.574219 -0.121094 0.574219 -0.144531 L 0.574219 -4.882812 C 0.574219 -5.011719 0.605469 -5.105469 0.671875 -5.167969 C 0.738281 -5.234375 0.828125 -5.265625 0.9375 -5.265625 L 2.175781 -5.265625 C 2.300781 -5.265625 2.421875 -5.261719 2.53125 -5.25 C 2.644531 -5.242188 2.78125 -5.222656 2.9375 -5.191406 C 3.09375 -5.160156 3.253906 -5.101562 3.414062 -5.015625 C 3.578125 -4.933594 3.714844 -4.828125 3.828125 -4.699219 C 3.941406 -4.570312 4.03125 -4.417969 4.089844 -4.246094 C 4.148438 -4.074219 4.179688 -3.878906 4.179688 -3.667969 M 3.058594 -3.589844 C 3.058594 -3.773438 3.027344 -3.925781 2.960938 -4.042969 C 2.898438 -4.164062 2.816406 -4.253906 2.722656 -4.308594 C 2.628906 -4.367188 2.527344 -4.402344 2.421875 -4.417969 C 2.320312 -4.433594 2.210938 -4.4375 2.097656 -4.4375 L 1.644531 -4.4375 L 1.644531 -2.652344 L 2.125 -2.652344 C 2.292969 -2.652344 2.4375 -2.675781 2.554688 -2.722656 C 2.667969 -2.769531 2.761719 -2.832031 2.835938 -2.914062 C 2.910156 -3 2.964844 -3.097656 3.003906 -3.210938 C 3.039062 -3.328125 3.058594 -3.453125 3.058594 -3.589844 Z "/>
</g>
<g id="glyph-0-3">
<path d="M 1.648438 -0.144531 C 1.648438 -0.121094 1.640625 -0.09375 1.621094 -0.0742188 C 1.605469 -0.0507812 1.574219 -0.0351562 1.535156 -0.0195312 C 1.492188 -0.0078125 1.4375 0.00390625 1.371094 0.0117188 C 1.304688 0.0195312 1.214844 0.0234375 1.109375 0.0234375 C 1.007812 0.0234375 0.921875 0.0195312 0.851562 0.0117188 C 0.785156 0.00390625 0.726562 -0.0078125 0.6875 -0.0195312 C 0.648438 -0.0351562 0.617188 -0.0507812 0.601562 -0.0742188 C 0.582031 -0.09375 0.574219 -0.121094 0.574219 -0.144531 L 0.574219 -5.117188 C 0.574219 -5.144531 0.582031 -5.171875 0.601562 -5.191406 C 0.617188 -5.214844 0.648438 -5.230469 0.691406 -5.246094 C 0.730469 -5.257812 0.785156 -5.269531 0.855469 -5.277344 C 0.921875 -5.285156 1.007812 -5.289062 1.109375 -5.289062 C 1.214844 -5.289062 1.304688 -5.285156 1.371094 -5.277344 C 1.4375 -5.269531 1.492188 -5.257812 1.535156 -5.246094 C 1.574219 -5.230469 1.605469 -5.214844 1.621094 -5.191406 C 1.640625 -5.171875 1.648438 -5.144531 1.648438 -5.117188 Z "/>
</g>
<g id="glyph-0-4">
<path d="M 4.078125 -4.824219 C 4.078125 -4.746094 4.074219 -4.679688 4.066406 -4.625 C 4.058594 -4.570312 4.050781 -4.523438 4.035156 -4.488281 C 4.023438 -4.457031 4.007812 -4.429688 3.984375 -4.414062 C 3.964844 -4.398438 3.941406 -4.390625 3.917969 -4.390625 L 2.601562 -4.390625 L 2.601562 -0.144531 C 2.601562 -0.121094 2.589844 -0.09375 2.574219 -0.0742188 C 2.554688 -0.0507812 2.527344 -0.0351562 2.484375 -0.0195312 C 2.445312 -0.0078125 2.390625 0.00390625 2.320312 0.0117188 C 2.253906 0.0195312 2.167969 0.0234375 2.0625 0.0234375 C 1.960938 0.0234375 1.875 0.0195312 1.804688 0.0117188 C 1.734375 0.00390625 1.679688 -0.0078125 1.640625 -0.0195312 C 1.597656 -0.0351562 1.570312 -0.0507812 1.550781 -0.0742188 C 1.535156 -0.09375 1.527344 -0.121094 1.527344 -0.144531 L 1.527344 -4.390625 L 0.207031 -4.390625 C 0.179688 -4.390625 0.15625 -4.398438 0.136719 -4.414062 C 0.121094 -4.429688 0.101562 -4.457031 0.0898438 -4.488281 C 0.0742188 -4.523438 0.0664062 -4.570312 0.0585938 -4.625 C 0.0507812 -4.679688 0.046875 -4.746094 0.046875 -4.824219 C 0.046875 -4.90625 0.0507812 -4.976562 0.0585938 -5.035156 C 0.0664062 -5.089844 0.0742188 -5.136719 0.0898438 -5.167969 C 0.101562 -5.203125 0.121094 -5.226562 0.136719 -5.242188 C 0.15625 -5.257812 0.179688 -5.265625 0.207031 -5.265625 L 3.917969 -5.265625 C 3.941406 -5.265625 3.964844 -5.257812 3.984375 -5.242188 C 4.007812 -5.226562 4.023438 -5.203125 4.035156 -5.167969 C 4.050781 -5.136719 4.058594 -5.089844 4.066406 -5.035156 C 4.074219 -4.976562 4.078125 -4.90625 4.078125 -4.824219 Z "/>
</g>
<g id="glyph-0-5">
<path d="M 4.886719 -0.398438 C 4.917969 -0.300781 4.941406 -0.222656 4.949219 -0.167969 C 4.957031 -0.109375 4.945312 -0.0664062 4.914062 -0.0390625 C 4.886719 -0.0117188 4.832031 0.0078125 4.757812 0.015625 C 4.679688 0.0195312 4.578125 0.0234375 4.441406 0.0234375 C 4.304688 0.0234375 4.195312 0.0234375 4.121094 0.0195312 C 4.042969 0.015625 3.984375 0.0078125 3.941406 -0.0078125 C 3.902344 -0.0195312 3.875 -0.0351562 3.855469 -0.0585938 C 3.839844 -0.078125 3.828125 -0.105469 3.816406 -0.140625 L 3.460938 -1.199219 L 1.484375 -1.199219 L 1.152344 -0.171875 C 1.140625 -0.132812 1.125 -0.101562 1.109375 -0.0742188 C 1.089844 -0.0507812 1.0625 -0.0273438 1.023438 -0.015625 C 0.984375 0 0.929688 0.0117188 0.855469 0.015625 C 0.785156 0.0234375 0.691406 0.0234375 0.574219 0.0234375 C 0.449219 0.0234375 0.351562 0.0195312 0.28125 0.0117188 C 0.210938 0.00390625 0.160156 -0.015625 0.132812 -0.046875 C 0.105469 -0.078125 0.0976562 -0.121094 0.105469 -0.179688 C 0.113281 -0.234375 0.132812 -0.3125 0.167969 -0.40625 L 1.789062 -5.078125 C 1.804688 -5.125 1.824219 -5.160156 1.847656 -5.191406 C 1.867188 -5.21875 1.902344 -5.238281 1.949219 -5.253906 C 2 -5.269531 2.0625 -5.28125 2.148438 -5.285156 C 2.234375 -5.289062 2.34375 -5.289062 2.480469 -5.289062 C 2.640625 -5.289062 2.769531 -5.289062 2.863281 -5.285156 C 2.960938 -5.28125 3.035156 -5.269531 3.085938 -5.253906 C 3.140625 -5.238281 3.175781 -5.21875 3.199219 -5.1875 C 3.222656 -5.15625 3.242188 -5.117188 3.257812 -5.066406 L 4.886719 -0.398438 M 2.46875 -4.261719 L 2.464844 -4.261719 L 1.722656 -2.023438 L 3.214844 -2.023438 L 2.46875 -4.261719 M 2.847656 -5.855469 C 2.878906 -5.816406 2.894531 -5.785156 2.902344 -5.757812 C 2.910156 -5.730469 2.902344 -5.707031 2.875 -5.691406 C 2.851562 -5.671875 2.8125 -5.660156 2.757812 -5.652344 C 2.703125 -5.644531 2.632812 -5.640625 2.539062 -5.640625 C 2.453125 -5.640625 2.382812 -5.640625 2.328125 -5.648438 C 2.269531 -5.652344 2.222656 -5.660156 2.179688 -5.675781 C 2.140625 -5.6875 2.105469 -5.703125 2.078125 -5.71875 C 2.046875 -5.738281 2.019531 -5.757812 1.992188 -5.78125 L 1.089844 -6.597656 C 1.050781 -6.632812 1.023438 -6.664062 1.011719 -6.699219 C 1 -6.730469 1.003906 -6.757812 1.03125 -6.785156 C 1.058594 -6.8125 1.105469 -6.832031 1.175781 -6.847656 C 1.242188 -6.863281 1.339844 -6.871094 1.464844 -6.871094 C 1.566406 -6.871094 1.648438 -6.871094 1.714844 -6.867188 C 1.78125 -6.863281 1.839844 -6.855469 1.886719 -6.839844 C 1.933594 -6.828125 1.976562 -6.808594 2.011719 -6.78125 C 2.046875 -6.757812 2.082031 -6.726562 2.117188 -6.683594 Z "/>
</g>
</g>
</defs>
<g fill="rgb(70.196078%, 9.803922%, 22.352941%)" fill-opacity="1">
<use xlink:href="#glyph-0-0" x="30" y="26.25"/>
<use xlink:href="#glyph-0-1" x="34" y="26.25"/>
<use xlink:href="#glyph-0-2" x="39" y="26.25"/>
<use xlink:href="#glyph-0-1" x="43" y="26.25"/>
<use xlink:href="#glyph-0-0" x="48" y="26.25"/>
<use xlink:href="#glyph-0-3" x="52" y="26.25"/>
<use xlink:href="#glyph-0-4" x="54" y="26.25"/>
<use xlink:href="#glyph-0-5" x="57" y="26.25"/>
</g>
</svg>
